# xmcd
#
# Track frame offsets: 
#        150
#        17305
#        32802
#
# Disc length: 656 seconds
#
# Revision: 8
# Processed by: cddbd v1.5.2PL0 Copyright (c) Steve Scherf et al.
# Submitted via: ExactAudioCopy v0.99pb3
#
DISCID=15028e03
DTITLE=julia wegner - julia wegner - liebe kommt liebe geht
DYEAR=2004
DGENRE=National Folk
TTITLE0=liebe kommt liebe geht
TTITLE1=von anfang an
TTITLE2=liebe kommt liebe geht (karaoke version)
EXTD=YEAR: 2004
EXTT0=
EXTT1=
EXTT2=
PLAYORDER=
